<svg width="152" height="152" viewBox="0 0 152 152" fill="none" xmlns="http://www.w3.org/2000/svg">
<rect x="4.5" y="4.5" width="143" height="143" rx="71.5" fill="#6366F1"/>
<path fill-rule="evenodd" clip-rule="evenodd" d="M78.0897 115.972C78.0897 115.981 78.0897 115.991 78.0897 116H74.0897C74.0897 115.993 74.0897 115.986 74.0897 115.98C74.0843 101.909 68.3769 93.2715 61.8221 88.1043C55.1618 82.854 47.5536 81.1346 43.8974 81.1346V77.1346C48.4191 77.1346 56.9071 79.1364 64.2984 84.963C68.088 87.9503 71.5717 91.9303 74.0897 97.1189L74.0897 35H78.0897L78.0897 97.1189C80.6078 91.9303 84.0915 87.9503 87.881 84.963C95.2724 79.1364 103.76 77.1346 108.282 77.1346V81.1346C104.626 81.1346 97.0177 82.854 90.3573 88.1043C83.8038 93.2705 78.0974 101.906 78.0897 115.972Z" fill="white"/>
<rect x="4.5" y="4.5" width="143" height="143" rx="71.5" stroke="#F6F6F6" stroke-width="9"/>
</svg>
