<svg width="194" height="73" viewBox="0 0 194 73" fill="none" xmlns="http://www.w3.org/2000/svg">
<g clip-path="url(#clip0_1_1260)">
<path d="M51.0437 41.4233C41.9542 51.3377 23.9673 42.7247 16.1101 37.1791C29.5408 59.0451 47.1434 70.0573 54.2657 72.8302C57.5217 51.9149 53.4178 43.9698 51.0437 41.4233Z" fill="url(#paint0_linear_1_1260)"/>
<path d="M46.5854 18.5249C59.7069 21.4481 61.2494 41.3489 60.3808 50.9336C72.5811 28.3564 73.3062 7.58937 72.1436 0.0279541C52.4224 7.66281 47.6012 15.1933 46.5854 18.5249Z" fill="url(#paint1_linear_1_1260)"/>
<path d="M29.0447 33.7669C25.0127 20.9293 41.457 9.64153 50.1829 5.60233C24.5519 6.31352 6.22428 16.0684 0.264374 20.8569C16.7297 34.1375 25.6547 34.5521 29.0447 33.7669Z" fill="url(#paint2_linear_1_1260)"/>
<path d="M109.21 23.197L98.8314 52.2884H95.1685L84.7902 23.197H88.6159L95.1685 41.8579C95.467 42.6456 95.7247 43.4061 95.9418 44.1395C96.1589 44.8729 96.3488 45.5792 96.5116 46.2582C96.7015 46.9101 96.8643 47.562 97 48.2139C97.1356 47.562 97.2849 46.8966 97.4477 46.2175C97.6376 45.5384 97.8411 44.8322 98.0582 44.0988C98.3024 43.3654 98.5601 42.5913 98.8314 41.7764L105.343 23.197H109.21ZM120.283 30.042C122.155 30.042 123.756 30.4495 125.086 31.2644C126.442 32.0793 127.473 33.2337 128.179 34.7276C128.911 36.1944 129.278 37.9193 129.278 39.9021V42.0616H114.341C114.395 44.5334 115.019 46.4212 116.213 47.725C117.434 49.0017 119.13 49.64 121.301 49.64C122.684 49.64 123.905 49.5178 124.963 49.2733C126.049 49.0017 127.161 48.6214 128.301 48.1325V51.2698C127.188 51.7587 126.089 52.1118 125.004 52.3291C123.919 52.5736 122.63 52.6958 121.138 52.6958C119.076 52.6958 117.244 52.2748 115.643 51.4327C114.07 50.5907 112.835 49.3412 111.94 47.6843C111.071 46.0002 110.637 43.9494 110.637 41.5319C110.637 39.1416 111.031 37.0908 111.818 35.3795C112.632 33.6683 113.758 32.3509 115.196 31.4273C116.661 30.5038 118.357 30.042 120.283 30.042ZM120.242 32.9756C118.533 32.9756 117.176 33.5325 116.172 34.6461C115.196 35.7326 114.612 37.2538 114.422 39.2095H125.533C125.533 37.96 125.343 36.8735 124.963 35.9499C124.584 35.0264 124 34.3066 123.213 33.7905C122.454 33.2473 121.463 32.9756 120.242 32.9756ZM149.035 46.2582C149.035 47.6707 148.683 48.8523 147.977 49.803C147.272 50.7537 146.268 51.4735 144.965 51.9624C143.663 52.4513 142.117 52.6958 140.326 52.6958C138.806 52.6958 137.49 52.5736 136.378 52.3291C135.293 52.0846 134.329 51.7451 133.488 51.3105V48.051C134.357 48.4856 135.401 48.893 136.622 49.2733C137.87 49.6264 139.132 49.803 140.407 49.803C142.225 49.803 143.541 49.5178 144.355 48.9473C145.169 48.3498 145.576 47.562 145.576 46.5842C145.576 46.0409 145.427 45.552 145.128 45.1174C144.83 44.6828 144.287 44.2482 143.5 43.8136C142.741 43.379 141.642 42.89 140.204 42.3468C138.793 41.8035 137.585 41.2603 136.581 40.717C135.577 40.1738 134.804 39.5219 134.262 38.7613C133.719 38.0007 133.448 37.0229 133.448 35.8277C133.448 33.9806 134.194 32.5546 135.686 31.5496C137.205 30.5446 139.186 30.042 141.628 30.042C142.958 30.042 144.192 30.1779 145.332 30.4495C146.498 30.694 147.584 31.0471 148.588 31.5088L147.367 34.3609C146.77 34.0893 146.132 33.8584 145.454 33.6683C144.803 33.451 144.138 33.288 143.46 33.1793C142.781 33.0435 142.089 32.9756 141.384 32.9756C139.919 32.9756 138.793 33.2201 138.006 33.709C137.246 34.1708 136.866 34.8091 136.866 35.624C136.866 36.2216 137.043 36.7377 137.395 37.1723C137.748 37.5797 138.331 37.9872 139.145 38.3946C139.987 38.7749 141.099 39.2366 142.483 39.7799C143.867 40.296 145.047 40.8257 146.024 41.3689C147 41.9122 147.747 42.5777 148.262 43.3654C148.778 44.1259 149.035 45.0902 149.035 46.2582ZM162.731 30.042C164.604 30.042 166.204 30.4495 167.534 31.2644C168.891 32.0793 169.922 33.2337 170.627 34.7276C171.36 36.1944 171.726 37.9193 171.726 39.9021V42.0616H156.789C156.844 44.5334 157.468 46.4212 158.661 47.725C159.882 49.0017 161.578 49.64 163.749 49.64C165.133 49.64 166.354 49.5178 167.412 49.2733C168.497 49.0017 169.61 48.6214 170.749 48.1325V51.2698C169.637 51.7587 168.538 52.1118 167.452 52.3291C166.367 52.5736 165.078 52.6958 163.586 52.6958C161.524 52.6958 159.692 52.2748 158.092 51.4327C156.518 50.5907 155.283 49.3412 154.388 47.6843C153.52 46.0002 153.086 43.9494 153.086 41.5319C153.086 39.1416 153.479 37.0908 154.266 35.3795C155.08 33.6683 156.206 32.3509 157.644 31.4273C159.109 30.5038 160.805 30.042 162.731 30.042ZM162.691 32.9756C160.981 32.9756 159.625 33.5325 158.621 34.6461C157.644 35.7326 157.061 37.2538 156.871 39.2095H167.982C167.982 37.96 167.792 36.8735 167.412 35.9499C167.032 35.0264 166.449 34.3066 165.662 33.7905C164.902 33.2473 163.912 32.9756 162.691 32.9756ZM173.066 30.4495H176.891L181.612 42.8765C181.884 43.6099 182.128 44.3161 182.345 44.9952C182.589 45.6742 182.806 46.3397 182.996 46.9916C183.186 47.6164 183.335 48.2275 183.444 48.8251H183.607C183.77 48.146 184.027 47.2633 184.38 46.1767C184.733 45.0631 185.099 43.9494 185.479 42.8357L189.915 30.4495H193.782L184.38 55.3034C183.864 56.6616 183.254 57.8432 182.549 58.8482C181.87 59.8804 181.029 60.6681 180.025 61.2113C179.048 61.7818 177.855 62.067 176.444 62.067C175.792 62.067 175.223 62.0262 174.734 61.9447C174.246 61.8904 173.825 61.8225 173.473 61.741V58.8889C173.771 58.9433 174.124 58.9976 174.531 59.0519C174.965 59.1062 175.413 59.1334 175.874 59.1334C176.715 59.1334 177.434 58.9704 178.031 58.6445C178.655 58.3457 179.184 57.8975 179.618 57.2999C180.052 56.7295 180.419 56.0504 180.717 55.2627L181.857 52.3699L173.066 30.4495Z" fill="#1F2937"/>
</g>
<defs>
<linearGradient id="paint0_linear_1_1260" x1="54.4353" y1="72.6605" x2="16.071" y2="37.2212" gradientUnits="userSpaceOnUse">
<stop stop-color="#10B981"/>
<stop offset="1" stop-color="#6EE7B7"/>
</linearGradient>
<linearGradient id="paint1_linear_1_1260" x1="72.0717" y1="-2.05869e-05" x2="60.3461" y2="50.9246" gradientUnits="userSpaceOnUse">
<stop stop-color="#3B82F6"/>
<stop offset="1" stop-color="#93C5FD"/>
</linearGradient>
<linearGradient id="paint2_linear_1_1260" x1="0.338991" y1="21.2209" x2="50.2053" y2="5.63366" gradientUnits="userSpaceOnUse">
<stop stop-color="#FBBF24"/>
<stop offset="1" stop-color="#FDE68A"/>
</linearGradient>
<clipPath id="clip0_1_1260">
<rect width="194" height="73" fill="white"/>
</clipPath>
</defs>
</svg>
